ffmpeg version 5.0-essentials_build-www.gyan.dev Copyright (c) 2000-2022 the FFmpeg developers
  built with gcc 11.2.0 (Rev5, Built by MSYS2 project)
  configuration: --enable-gpl --enable-version3 --enable-static --disable-w32threads --disable-autodetect --enable-fontconfig --enable-iconv --enable-gnutls --enable-libxml2 --enable-gmp --enable-lzma --enable-zlib --enable-libsrt --enable-libssh --enable-libzmq --enable-avisynth --enable-sdl2 --enable-libwebp --enable-libx264 --enable-libx265 --enable-libxvid --enable-libaom --enable-libopenjpeg --enable-libvpx --enable-libass --enable-libfreetype --enable-libfribidi --enable-libvidstab --enable-libvmaf --enable-libzimg --enable-amf --enable-cuda-llvm --enable-cuvid --enable-ffnvcodec --enable-nvdec --enable-nvenc --enable-d3d11va --enable-dxva2 --enable-libmfx --enable-libgme --enable-libopenmpt --enable-libopencore-amrwb --enable-libmp3lame --enable-libtheora --enable-libvo-amrwbenc --enable-libgsm --enable-libopencore-amrnb --enable-libopus --enable-libspeex --enable-libvorbis --enable-librubberband
  libavutil      57. 17.100 / 57. 17.100
  libavcodec     59. 18.100 / 59. 18.100
  libavformat    59. 16.100 / 59. 16.100
  libavdevice    59.  4.100 / 59.  4.100
  libavfilter     8. 24.100 /  8. 24.100
  libswscale      6.  4.100 /  6.  4.100
  libswresample   4.  3.100 /  4.  3.100
  libpostproc    56.  3.100 / 56.  3.100
Splitting the commandline.
Reading option '-v' ... matched as option 'v' (set logging level) with argument 'debug'.
Reading option '-nostdin' ... matched as option 'stdin' (enable or disable interaction on standard input) with argument 0.
Reading option '-progress' ... matched as option 'progress' (write program-readable progress information) with argument 'C:/Users/MicroHard/AppData/Local/Temp/KritaFFmpegProgress.upDtXo'.
Reading option '-r' ... matched as option 'r' (set frame rate (Hz value, fraction or abbreviation)) with argument '10'.
Reading option '-start_number' ... matched as AVOption 'start_number' with argument '0'.
Reading option '-i' ... matched as input url with argument 'D:/GithubProjects/DuxMovil/resources/obstacles/light_pole_electric/light_pole_electric%04d.png'.
Reading option '-vf' ... matched as option 'vf' (set video filters) with argument 'palettegen'.
Reading option '-y' ... matched as option 'y' (overwrite output files) with argument '1'.
Reading option 'D:/GithubProjects/DuxMovil/resources/obstacles/light_pole_electric/palette.png' ... matched as output url.
Finished splitting the commandline.
Parsing a group of options: global .
Applying option v (set logging level) with argument debug.
Applying option nostdin (enable or disable interaction on standard input) with argument 0.
Applying option progress (write program-readable progress information) with argument C:/Users/MicroHard/AppData/Local/Temp/KritaFFmpegProgress.upDtXo.
[file @ 000001c10b94bc00] Setting default whitelist 'file,crypto,data'
Applying option y (overwrite output files) with argument 1.
Successfully parsed a group of options.
Parsing a group of options: input url D:/GithubProjects/DuxMovil/resources/obstacles/light_pole_electric/light_pole_electric%04d.png.
Applying option r (set frame rate (Hz value, fraction or abbreviation)) with argument 10.
Successfully parsed a group of options.
Opening an input file: D:/GithubProjects/DuxMovil/resources/obstacles/light_pole_electric/light_pole_electric%04d.png.
[image2 @ 000001c10b98c100] Opening 'D:/GithubProjects/DuxMovil/resources/obstacles/light_pole_electric/light_pole_electric0000.png' for reading
[file @ 000001c10b98f380] Setting default whitelist 'file,crypto,data'
[AVIOContext @ 000001c10b997540] Statistics: 2381 bytes read, 0 seeks
[image2 @ 000001c10b98c100] Opening 'D:/GithubProjects/DuxMovil/resources/obstacles/light_pole_electric/light_pole_electric0001.png' for reading
[file @ 000001c10b9981c0] Setting default whitelist 'file,crypto,data'
[AVIOContext @ 000001c10b9a0e00] Statistics: 2411 bytes read, 0 seeks
[image2 @ 000001c10b98c100] Opening 'D:/GithubProjects/DuxMovil/resources/obstacles/light_pole_electric/light_pole_electric0002.png' for reading
[file @ 000001c10b9a1980] Setting default whitelist 'file,crypto,data'
[AVIOContext @ 000001c10b9a9b00] Statistics: 2391 bytes read, 0 seeks
[image2 @ 000001c10b98c100] Opening 'D:/GithubProjects/DuxMovil/resources/obstacles/light_pole_electric/light_pole_electric0003.png' for reading
[file @ 000001c10b9aa740] Setting default whitelist 'file,crypto,data'
[AVIOContext @ 000001c10b9a99c0] Statistics: 2434 bytes read, 0 seeks
[image2 @ 000001c10b98c100] Opening 'D:/GithubProjects/DuxMovil/resources/obstacles/light_pole_electric/light_pole_electric0004.png' for reading
[file @ 000001c10b9aa800] Setting default whitelist 'file,crypto,data'
[AVIOContext @ 000001c10b9a99c0] Statistics: 2455 bytes read, 0 seeks
[image2 @ 000001c10b98c100] Opening 'D:/GithubProjects/DuxMovil/resources/obstacles/light_pole_electric/light_pole_electric0005.png' for reading
[file @ 000001c10b9aaa80] Setting default whitelist 'file,crypto,data'
[AVIOContext @ 000001c10b9a99c0] Statistics: 2463 bytes read, 0 seeks
[image2 @ 000001c10b98c100] Opening 'D:/GithubProjects/DuxMovil/resources/obstacles/light_pole_electric/light_pole_electric0006.png' for reading
[file @ 000001c10b9aaa80] Setting default whitelist 'file,crypto,data'
[AVIOContext @ 000001c10b9a99c0] Statistics: 2546 bytes read, 0 seeks
[image2 @ 000001c10b98c100] Opening 'D:/GithubProjects/DuxMovil/resources/obstacles/light_pole_electric/light_pole_electric0007.png' for reading
[file @ 000001c10b9aad00] Setting default whitelist 'file,crypto,data'
[AVIOContext @ 000001c10b9a99c0] Statistics: 3012 bytes read, 0 seeks
[image2 @ 000001c10b98c100] Opening 'D:/GithubProjects/DuxMovil/resources/obstacles/light_pole_electric/light_pole_electric0008.png' for reading
[file @ 000001c10b9aad00] Setting default whitelist 'file,crypto,data'
[AVIOContext @ 000001c10b9a99c0] Statistics: 2815 bytes read, 0 seeks
[image2 @ 000001c10b98c100] Opening 'D:/GithubProjects/DuxMovil/resources/obstacles/light_pole_electric/light_pole_electric0009.png' for reading
[file @ 000001c10b9aad00] Setting default whitelist 'file,crypto,data'
[AVIOContext @ 000001c10b9a99c0] Statistics: 2705 bytes read, 0 seeks
[image2 @ 000001c10b98c100] Opening 'D:/GithubProjects/DuxMovil/resources/obstacles/light_pole_electric/light_pole_electric0010.png' for reading
[file @ 000001c10b9aad00] Setting default whitelist 'file,crypto,data'
[AVIOContext @ 000001c10b9907c0] Statistics: 2535 bytes read, 0 seeks
[image2 @ 000001c10b98c100] Opening 'D:/GithubProjects/DuxMovil/resources/obstacles/light_pole_electric/light_pole_electric0011.png' for reading
[file @ 000001c10b9aad00] Setting default whitelist 'file,crypto,data'
[AVIOContext @ 000001c10b9907c0] Statistics: 2381 bytes read, 0 seeks
[image2 @ 000001c10b98c100] Opening 'D:/GithubProjects/DuxMovil/resources/obstacles/light_pole_electric/light_pole_electric0012.png' for reading
[file @ 000001c10b9aad00] Setting default whitelist 'file,crypto,data'
[AVIOContext @ 000001c10b9907c0] Statistics: 2381 bytes read, 0 seeks
[image2 @ 000001c10b98c100] Opening 'D:/GithubProjects/DuxMovil/resources/obstacles/light_pole_electric/light_pole_electric0013.png' for reading
[file @ 000001c10b9aad00] Setting default whitelist 'file,crypto,data'
[AVIOContext @ 000001c10b9907c0] Statistics: 2381 bytes read, 0 seeks
Input #0, image2, from 'D:/GithubProjects/DuxMovil/resources/obstacles/light_pole_electric/light_pole_electric%04d.png':
  Duration: 00:00:00.56, start: 0.000000, bitrate: N/A
  Stream #0:0, 14, 1/25: Video: png, 1 reference frame, rgba(pc), 80x80 [SAR 11811:11811 DAR 1:1], 0/1, 25 fps, 25 tbr, 25 tbn
Successfully opened the file.
Parsing a group of options: output url D:/GithubProjects/DuxMovil/resources/obstacles/light_pole_electric/palette.png.
Applying option vf (set video filters) with argument palettegen.
Successfully parsed a group of options.
Opening an output file: D:/GithubProjects/DuxMovil/resources/obstacles/light_pole_electric/palette.png.
Successfully opened the file.
detected 12 logical cores
Stream mapping:
  Stream #0:0 -> #0:0 (png (native) -> png (native))
cur_dts is invalid st:0 (0) [init:0 i_done:0 finish:0] (this is harmless if it occurs once at the start per stream)
    Last message repeated 12 times
[graph 0 input from stream 0:0 @ 000001c10b9aaa00] Setting 'video_size' to value '80x80'
[graph 0 input from stream 0:0 @ 000001c10b9aaa00] Setting 'pix_fmt' to value '26'
[graph 0 input from stream 0:0 @ 000001c10b9aaa00] Setting 'time_base' to value '1/10'
[graph 0 input from stream 0:0 @ 000001c10b9aaa00] Setting 'pixel_aspect' to value '11811/11811'
[graph 0 input from stream 0:0 @ 000001c10b9aaa00] Setting 'frame_rate' to value '10/1'
[graph 0 input from stream 0:0 @ 000001c10b9aaa00] w:80 h:80 pixfmt:rgba tb:1/10 fr:10/1 sar:11811/11811
[format @ 000001c10ba531c0] Setting 'pix_fmts' to value 'rgb24|rgba|rgb48be|rgba64be|pal8|gray|ya8|gray16be|ya16be|monob'
[auto_scale_0 @ 000001c10ba533c0] w:iw h:ih flags:'' interl:0
[Parsed_palettegen_0 @ 000001c109d27c80] auto-inserting filter 'auto_scale_0' between the filter 'graph 0 input from stream 0:0' and the filter 'Parsed_palettegen_0'
[auto_scale_1 @ 000001c10ba532c0] w:iw h:ih flags:'' interl:0
[format @ 000001c10ba531c0] auto-inserting filter 'auto_scale_1' between the filter 'Parsed_palettegen_0' and the filter 'format'
[AVFilterGraph @ 000001c10b9a9a40] query_formats: 4 queried, 3 merged, 2 already done, 0 delayed
[auto_scale_1 @ 000001c10ba532c0] picking rgba out of 10 ref:bgra alpha:1
[swscaler @ 000001c10ba55e80] [swscaler @ 000001c10ba62e40] Forcing full internal H chroma due to input having non subsampled chroma
[swscaler @ 000001c10ba55e80] [swscaler @ 000001c10ba6ffc0] Forcing full internal H chroma due to input having non subsampled chroma
[swscaler @ 000001c10ba55e80] [swscaler @ 000001c10ba82fc0] Forcing full internal H chroma due to input having non subsampled chroma
[swscaler @ 000001c10ba55e80] [swscaler @ 000001c10ba962c0] Forcing full internal H chroma due to input having non subsampled chroma
[swscaler @ 000001c10ba55e80] [swscaler @ 000001c10baab900] Forcing full internal H chroma due to input having non subsampled chroma
[swscaler @ 000001c10ba55e80] [swscaler @ 000001c10babef00] Forcing full internal H chroma due to input having non subsampled chroma
[swscaler @ 000001c10ba55e80] [swscaler @ 000001c10bad2500] Forcing full internal H chroma due to input having non subsampled chroma
[swscaler @ 000001c10ba55e80] [swscaler @ 000001c10baeb540] Forcing full internal H chroma due to input having non subsampled chroma
[swscaler @ 000001c10ba55e80] [swscaler @ 000001c10bafe540] Forcing full internal H chroma due to input having non subsampled chroma
[swscaler @ 000001c10ba55e80] [swscaler @ 000001c10bb146c0] Forcing full internal H chroma due to input having non subsampled chroma
[swscaler @ 000001c10ba55e80] [swscaler @ 000001c10bb276c0] Forcing full internal H chroma due to input having non subsampled chroma
[swscaler @ 000001c10ba55e80] [swscaler @ 000001c10bb40700] Forcing full internal H chroma due to input having non subsampled chroma
[swscaler @ 000001c10ba55e80] [swscaler @ 000001c10bb53740] Forcing full internal H chroma due to input having non subsampled chroma
[auto_scale_0 @ 000001c10ba533c0] w:80 h:80 fmt:rgba sar:11811/11811 -> w:80 h:80 fmt:bgra sar:1/1 flags:0x0
[swscaler @ 000001c10bb66740] [swscaler @ 000001c10bb7b740] Forcing full internal H chroma due to input having non subsampled chroma
[swscaler @ 000001c10bb66740] [swscaler @ 000001c10bb90780] Forcing full internal H chroma due to input having non subsampled chroma
[swscaler @ 000001c10bb66740] [swscaler @ 000001c10bba37c0] Forcing full internal H chroma due to input having non subsampled chroma
[swscaler @ 000001c10bb66740] [swscaler @ 000001c10bbb67c0] Forcing full internal H chroma due to input having non subsampled chroma
[swscaler @ 000001c10bb66740] [swscaler @ 000001c10bbc9800] Forcing full internal H chroma due to input having non subsampled chroma
[swscaler @ 000001c10bb66740] [swscaler @ 000001c10bbe0800] Forcing full internal H chroma due to input having non subsampled chroma
[swscaler @ 000001c10bb66740] [swscaler @ 000001c10bbf3840] Forcing full internal H chroma due to input having non subsampled chroma
[swscaler @ 000001c10bb66740] [swscaler @ 000001c10bc06840] Forcing full internal H chroma due to input having non subsampled chroma
[swscaler @ 000001c10bb66740] [swscaler @ 000001c10cc300c0] Forcing full internal H chroma due to input having non subsampled chroma
[swscaler @ 000001c10bb66740] [swscaler @ 000001c10cc430c0] Forcing full internal H chroma due to input having non subsampled chroma
[swscaler @ 000001c10bb66740] [swscaler @ 000001c10cc56100] Forcing full internal H chroma due to input having non subsampled chroma
[swscaler @ 000001c10bb66740] [swscaler @ 000001c10cc69100] Forcing full internal H chroma due to input having non subsampled chroma
[swscaler @ 000001c10bb66740] [swscaler @ 000001c10cc80140] Forcing full internal H chroma due to input having non subsampled chroma
[auto_scale_1 @ 000001c10ba532c0] w:16 h:16 fmt:bgra sar:1/1 -> w:16 h:16 fmt:rgba sar:1/1 flags:0x0
cur_dts is invalid st:0 (0) [init:0 i_done:0 finish:0] (this is harmless if it occurs once at the start per stream)
    Last message repeated 13 times
[Parsed_palettegen_0 @ 000001c109d27c80] 66(+1) colors generated out of 66 colors; ratio=1.000000
[Parsed_palettegen_0 @ 000001c109d27c80] Duped color: FFD7D57C
    Last message repeated 1 times
cur_dts is invalid st:0 (0) [init:0 i_done:0 finish:0] (this is harmless if it occurs once at the start per stream)
Output #0, image2, to 'D:/GithubProjects/DuxMovil/resources/obstacles/light_pole_electric/palette.png':
  Metadata:
    encoder         : Lavf59.16.100
  Stream #0:0, 0, 1/10: Video: png, 1 reference frame, rgba(pc, gbr/unknown/unknown, progressive), 16x16 (0x0) [SAR 1:1 DAR 1:1], 0/1, q=2-31, 200 kb/s, 10 fps, 10 tbn
    Metadata:
      encoder         : Lavc59.18.100 png
Clipping frame in rate conversion by 0.000008
frame=    1 fps=0.0 q=0.0 size=N/A time=00:00:00.00 bitrate=N/A speed=   0x    cur_dts is invalid st:0 (0) [init:1 i_done:0 finish:0] (this is harmless if it occurs once at the start per stream)
[out_0_0 @ 000001c10b9cd940] EOF on sink link out_0_0:default.
No more output streams to write to, finishing.
[image2 @ 000001c10b98eec0] Opening 'D:/GithubProjects/DuxMovil/resources/obstacles/light_pole_electric/palette.png' for writing
[file @ 000001c10baea880] Setting default whitelist 'file,crypto,data'
[AVIOContext @ 000001c10b997ec0] Statistics: 289 bytes written, 0 seeks, 1 writeouts
frame=    1 fps=0.0 q=-0.0 Lsize=N/A time=00:00:00.10 bitrate=N/A speed=5.84x    
[AVIOContext @ 000001c10b98be00] Statistics: 348 bytes written, 0 seeks, 2 writeouts
video:0kB audio:0kB subtitle:0kB other streams:0kB global headers:0kB muxing overhead: unknown
Input file #0 (D:/GithubProjects/DuxMovil/resources/obstacles/light_pole_electric/light_pole_electric%04d.png):
  Input stream #0:0 (video): 14 packets read (35291 bytes); 14 frames decoded; 
  Total: 14 packets (35291 bytes) demuxed
Output file #0 (D:/GithubProjects/DuxMovil/resources/obstacles/light_pole_electric/palette.png):
  Output stream #0:0 (video): 1 frames encoded; 1 packets muxed (289 bytes); 
  Total: 1 packets (289 bytes) muxed
14 frames successfully decoded, 0 decoding errors
